<svg width="243" height="246" fill="none" xmlns="http://www.w3.org/2000/svg"><path d="M207.265 201.174v30.573h30.572v-30.573h-30.572zm2.326 28.262v-25.951h25.943v25.951h-25.943z" fill="#EBEBEB"/><path d="M221.291 147.745h-89.446v89.445h89.446v-89.445z" fill="#414249"/><path d="M149.081 237.19h49.763c.209-1.9-7.413-42.335-16.36-55.338-1.016-1.473-9.723-2.551-12.918 1.117-16.918 19.438-20.888 53.756-20.485 54.221z" fill="#263238"/><path d="M183.662 185.21c1.412 3.66 6.738 16.484 9.638 25.695 1.939 6.203 2.683 11.359 3.102 12.724 0 0-14.732-4.714-18.004-4.722-5.094 0-13.267 10.622-11.266 11.956 3.155 2.101 18.174 9.227 30.177 11.468 6.521 1.217 18.802-7.072 17.833-13.662-1.357-9.25-18.074-33.628-24.432-40.544-3.295-3.59-8.777-7.374-7.048-2.915z" fill="#EB9481"/><path d="M216.049 230.623c-.31 6.66-8.645 12.273-13.476 12.568-8.335.504-33.34-6.777-33.34-6.777l9.715-18.732s17.058 5.776 17.454 5.939c-.148-.496-4.343-16.283-6.203-21.47-.101-.287-.217-.581-.326-.891a307.97 307.97 0 0 0-2.101-5.428c-.45-1.147-.931-2.326-1.404-3.52-2.054-5.102-4.055-9.963-4.055-9.963 2.861.473 5.691 1.977 10.336 6.854 4.644 4.877 23.904 30.433 23.4 41.42z" fill="#263238"/><path d="M175.73 232.359c.698-1.325 1.404-2.644 2.094-3.969.69-1.326 1.38-2.59 2.078-3.877a45.608 45.608 0 0 0 2.055-4.063 34.112 34.112 0 0 0-2.326 3.683c-.745 1.292-1.474 2.6-2.187 3.923a313.896 313.896 0 0 0-2.055 3.877 32.777 32.777 0 0 0-1.876 4.156c0 .062.054.116.093.062a39.536 39.536 0 0 0 2.124-3.792zM201.604 226.389l-5.195-2.76c-.147-.497-4.342-16.283-6.203-21.47-.1-.287-.217-.581-.325-.892-.543-1.45-1.28-3.357-2.101-5.427l13.824 30.549z" fill="#37474F"/><path d="M205.9 228.676a42.571 42.571 0 0 0-4.559-2.931 23.206 23.206 0 0 0-2.404-1.217c-.853-.364-1.799-.675-2.667-1.07-.07 0-.117.078-.047.101.775.372 1.551.884 2.365 1.31.814.427 1.628.876 2.45 1.303 1.621.829 3.21 1.713 4.823 2.566.039.023.108-.039.039-.062z" fill="#37474F"/><path d="M202.093 224.637c-1.311 0-9.181-2.086-10.328-1-6.978 6.582-9.196 5.257-10.685 6.117-11.514 6.622-26.897 14.406-32.386 14.453-8.32.07-11.631-6.916-10.251-13.515 2.737-13.049 20.33-38.488 28.293-45.25 4.226-3.582 3.877 1.822 2.14 7.684-1.023 3.443-2.814 8.529-4.652 13.577-1.62 4.474-5.908 15.902-5.986 16.174h.086c.372-.07 10.219-4.707 20.12-7.258 3.489-.899 10.754-2.178 13.36-1.015 1.55.69 1.55 1.62 1.55 1.62a3.816 3.816 0 0 1 2.559.962 3.671 3.671 0 0 1 1.132 1.729c.773.109 1.494.45 2.07.977.497.534.816 1.208.915 1.93 1.9.551 2.063 2.815 2.063 2.815z" fill="#EB9481"/><path d="M190.462 216.038a19.008 19.008 0 0 0-3.101.349c-.07 0-.07.116 0 .109 1.008-.109 2.039-.132 3.055-.163a66.217 66.217 0 0 1 3.055-.039c-.993-.178-2-.263-3.009-.256zM197.076 218.907a12.605 12.605 0 0 0-5.497-.489.066.066 0 0 0-.029.023.059.059 0 0 0-.011.036c0 .012.003.025.011.035.007.01.017.018.029.023 1.843-.1 3.69.039 5.497.411 0 0 .024-.031 0-.039zM200.077 221.822a12.354 12.354 0 0 0-5.21-.977c-.07 0-.093.101 0 .109 1.755.163 3.494.48 5.194.946.031.007.055-.062.016-.078zM178.002 215.79c-.868.141-1.728.332-2.574.574-.907.225-1.806.465-2.683.775a49.706 49.706 0 0 0-5.179 2.055.057.057 0 0 0-.026-.004.058.058 0 0 0-.025.009.055.055 0 0 0-.023.045.052.052 0 0 0 .023.045.058.058 0 0 0 .051.006 151.752 151.752 0 0 1 5.21-1.714l2.559-.837c.876-.287 1.791-.504 2.652-.83.07-.039.07-.132.015-.124z" fill="#263238"/><path d="M171.079 217.658a9.551 9.551 0 0 1 2.651-.62l10.359 17.492s-28.541 10.274-34.395 10.855a11.67 11.67 0 0 1-8.773-2.96 11.683 11.683 0 0 1-3.865-8.414c-.163-10.336 16.701-35.163 25.183-44.769 3.877-4.397 8.413-7.591 9.568-6.87 1.365.853-1.108 6.381-2.419 10.506-2.411 7.622-11.056 30.03-11.056 30.03s10.607-4.544 12.747-5.25z" fill="#263238"/><path d="M173.668 217.023c-1.613.093-8.529 2.512-11.971 3.977a58.958 58.958 0 0 0-9.731 5.257c-1.729 1.171-3.381 2.443-5.001 3.761a.05.05 0 0 0-.024.035.041.041 0 0 0 0 .022.05.05 0 0 0 .008.02.06.06 0 0 0 .016.016.05.05 0 0 0 .02.008.08.08 0 0 0 .022 0 .05.05 0 0 0 .02-.008 103.131 103.131 0 0 1 19.384-10.537c1.946-.776 5.295-1.892 7.195-2.389.512-.139.109-.17.062-.162z" fill="#37474F"/><path d="M166.822 201.725c-.435.698-.877 1.395-1.249 2.132l-.046.109c.55-1.683 1.077-3.366 1.55-5.064 0-.1-.139-.155-.178-.054-2.45 6.203-4.73 12.491-6.939 18.795-.613 1.768-1.156 3.543-1.714 5.327 0 .062.078.093.101 0 .674-1.551 1.357-3.04 1.969-4.598a248.23 248.23 0 0 0 1.768-4.652 196.89 196.89 0 0 0 2.915-8.258c.287-.481.582-.969.861-1.458.396-.721.729-1.473 1.062-2.225.062-.078-.054-.132-.1-.054zM177.173 230.715c-.776-1.287-1.505-2.582-2.264-3.876-.76-1.295-1.466-2.536-2.195-3.807a44.166 44.166 0 0 0-2.364-3.877h-.047a33.321 33.321 0 0 0 1.907 3.877 200.586 200.586 0 0 0 2.171 3.931 178.458 178.458 0 0 0 2.218 3.799 33.844 33.844 0 0 0 2.543 3.799c.039.047.124 0 .101-.054a38.871 38.871 0 0 0-2.07-3.792z" fill="#37474F"/><path d="M184.531 234.569c-.861-1.698-2.194-3.357-3.187-4.97 0-.062-.124 0-.093.062.9 1.512 1.721 3.14 2.582 4.652-3.915 1.621-8.079 3.063-12.08 4.482-4.001 1.419-8.227 2.83-12.406 4.039-2.326.675-4.652 1.404-7.032 2.024-.148 0-.109.155.038.124 4.238-.841 8.42-1.941 12.523-3.295 4.179-1.326 8.311-2.807 12.405-4.342 2.28-.869 7.32-2.644 7.25-2.776z" fill="#37474F"/><path d="M177.739 215.798a139.398 139.398 0 0 0-14.368 4.737l-.209.078c-2.45.961-3.962 1.675-4.327 1.737l-.077-.047a3.08 3.08 0 0 0-.776-.419c-.69-.248-7.319-1.077-7.148-3.101.17-2.024 2.861-1.9 3.256-1.876-.426-.093-4.024-.939-2.853-2.73.829-1.279 4.388-1.093 4.753-1.077-.365-.117-3.675-1.194-2.536-3.032.815-1.31 4.792-1.14 5.25-1.062-.373-.14-3.319-.636-1.939-2.218.954-1.101 8.444 0 11.778 1.683 4.962 2.434 9.196 7.327 9.196 7.327z" fill="#EB9481"/><path d="m163.371 220.535-.209.078a24.059 24.059 0 0 0-8.917-3.637c-.217 0-.232-.147 0-.139a16.53 16.53 0 0 1 9.126 3.698zM156.168 213.2c4.714.93 6.847 1.977 10.909 4.551.055.039.117-.046.062-.085-3.783-2.83-6.133-4.233-10.932-4.59-.217-.016-.256.077-.039.124zM158.867 209.06c4.528 1.209 6.916 2.248 10.56 5.202.085.07.194 0 .108-.116a16.964 16.964 0 0 0-10.622-5.21c-.295-.031-.333.054-.046.124z" fill="#263238"/><path d="M181.538 190.909c-2.683.961-7.893-2.706-10.149-5.908-.148-.225-.07-2.73-.117-5.777 0-1.853-.124-3.877-.341-5.784l12.08 1.551a30.316 30.316 0 0 0-.318 7.327c.034.263.091.522.171.775v.124c.434 1.388 1.264 6.761-1.326 7.692z" fill="#EB9481"/><path d="M182.895 183.171c.027.086.048.174.062.263-7.226-.31-9.979-3.489-11.762-6.536a50.675 50.675 0 0 0-.264-3.458l12.08 1.551a29.916 29.916 0 0 0-.318 7.327c.03.263.088.523.171.775 0 0 .015.031.031.078z" fill="#263238"/><path d="M165.984 160.77c-.659 4.334 3.303 15.996 6.645 18.237 4.854 3.248 11.91 2.582 14.445-3.047 2.458-5.428-2.969-20.563-6.621-22.486-5.381-2.884-13.499.884-14.469 7.296z" fill="#EB9481"/><path d="M177.149 166.012s-.046.062 0 .093c.287.775.481 1.721-.139 2.217v.039c.814-.395.543-1.651.139-2.349z" fill="#263238"/><path d="M176.173 165.43c-1.295.326-.551 2.892.659 2.59 1.209-.302.449-2.869-.659-2.59zM181.995 164.554s.078 0 .086.054c.209.776.581 1.691 1.372 1.745v.047c-.907.131-1.388-1.047-1.458-1.846z" fill="#263238"/><path d="M182.468 163.515c1.257-.465 2.102 2.07.939 2.505-1.163.434-1.985-2.109-.939-2.505zM174.816 164.546c.312-.196.613-.411.899-.643.333-.248.636-.411.775-.822a.572.572 0 0 0-.279-.636 1.423 1.423 0 0 0-1.395.256 2.062 2.062 0 0 0-.892 1.194.595.595 0 0 0 .892.651zM183.089 161.933a10.64 10.64 0 0 1-1.101 0 1.832 1.832 0 0 1-1.132-.178.574.574 0 0 1-.155-.675 1.384 1.384 0 0 1 1.263-.643 2.06 2.06 0 0 1 1.435.403.609.609 0 0 1 .227.655.61.61 0 0 1-.199.304.612.612 0 0 1-.338.134z" fill="#263238"/><path d="M179.142 170.772a2.848 2.848 0 0 0 2.156.683c.34-.033.674-.114.992-.241l.178-.077.171-.078a.214.214 0 0 0 .108-.225.249.249 0 0 0 0-.077v-.07c-.162-.612-.488-1.551-.488-1.551.256.055 1.551.233 1.434-.085a42.15 42.15 0 0 0-3.442-7.901c0-.085-.171 0-.14.062.776 2.543 2.032 4.924 2.877 7.467a4.946 4.946 0 0 0-1.396 0c-.077.046.667 1.752.721 2.039a3.889 3.889 0 0 1-1.533.287 3.9 3.9 0 0 1-1.522-.341c-.139-.016-.186.062-.116.108z" fill="#263238"/><path opacity=".2" d="M167.256 168.989c.682-.566 1.551-3.435 1.954-4.652s-.822-6.203-1.225-7.707a8.153 8.153 0 0 0-1.993 4.148c-.295 1.838.271 5.04 1.264 8.211z" fill="#263238"/><path d="M178.677 158.095a3.989 3.989 0 0 1-3.102 2.326 4.086 4.086 0 0 1-3.69-1.465c0-.039-.07 0-.047.039a4.04 4.04 0 0 0 3.768 1.752 4.117 4.117 0 0 0 3.195-2.59c-.016-.077-.101-.116-.124-.062zM171.978 149.768a6.269 6.269 0 0 0-4.272 4.249 4.437 4.437 0 0 0 .387 2.931h.078a4.925 4.925 0 0 1 1-4.916 6.341 6.341 0 0 1 5.203-2.194c.948.044 1.851.42 2.551 1.062.069.07.217 0 .155-.101-1.001-1.248-3.102-1.659-5.102-1.031zM186.283 150.908a5.08 5.08 0 0 0-2.845-2.039c-1.605-.45-3.102.116-4.606.713v.062a7.065 7.065 0 0 1 3.954-.674 5.094 5.094 0 0 1 2.908 1.705 4.825 4.825 0 0 1-3.931 7.863c-.047 0-.062.085 0 .085a4.996 4.996 0 0 0 5.335-5.139 5 5 0 0 0-.838-2.615l.023.039z" fill="#263238"/><path d="M165.953 163.252s-3.241-3.389-2.124-6.203c.636-1.59 4.008-2.326 4.008-2.326a6.225 6.225 0 0 1 1.189-2.121 6.218 6.218 0 0 1 1.913-1.5c2.597-1.427 6.366-.775 6.366-.775s2.217-2.257 5.094-1.551c4.008 1 5.063 6.381 2.062 9.048-2.101 1.877-6.024.652-6.024.652-.311.139-3.017 3.023-6.304.775 0 0-1.496 2.326-3.652 1.613a3.008 3.008 0 0 1-2.528 2.388z" fill="#263238"/><path d="M169.985 170.16s-3.349-3.411-4.939-2.155c-1.589 1.256 1.38 6.521 3.567 6.939a2.11 2.11 0 0 0 2.613-1.589l-1.241-3.195z" fill="#EB9481"/><path d="M165.93 169.516v.054c1.551.349 2.528 1.551 3.295 2.854a1.165 1.165 0 0 0-.891-.408 1.17 1.17 0 0 0-.892.408s0 .085.046.07c.241-.123.514-.169.782-.132.267.038.517.157.715.341.328.312.62.66.868 1.039.093.116.31 0 .241-.132-.295-1.931-2.117-4.264-4.164-4.094z" fill="#263238"/><path d="m182.856 182.915-2.566 7.11-8.994-8.49-2.327 2.923s9.002 13.685 9.026 13.049l2.644-6.118 4.303 4.025-.775-10.475-1.311-2.024z" fill="#EBEBEB"/><path d="M184.856 190.211c-.178-1.721-.31-3.466-.573-5.179 0-.062-.101-.086-.117 0-.279 1.682.442 8.28.497 9.862-.179-.17-3.978-3.528-4.017-3.473-.581.977-2.528 5.427-2.652 5.838-1.426-2.179-6.869-10.08-8.529-12.111a.056.056 0 0 0-.035-.015.065.065 0 0 0-.038.009.064.064 0 0 0-.025.029.058.058 0 0 0-.002.039c1.271 2.326 8.474 12.941 8.575 12.902a66.173 66.173 0 0 0 2.76-6.459c.652.737 4.505 4.536 4.513 4.28a55.832 55.832 0 0 0-.357-5.722z" fill="#263238"/><path d="M125.674 103.091H34.197v94.447h91.477v-94.447z" fill="#FFCE28"/><path d="M11.89 131.291v48.569h48.568v-48.569H11.889zm3.667 44.901v-41.234H56.79v41.234H15.556z" fill="#A6A6A6"/><path d="M94.535 129.655c2.404-.566 8.638 1.062 10.77 4.249 2.132 3.187 2.031 8.405.969 8.932-1.062.527-5.668.202-8.847-1.489-3.179-1.69-4.078-11.374-2.892-11.692z" fill="#263238"/><path d="M94.527 129.671c-.077 0-.093-.148 0-.155 2.117-.086 4.389.597 6.412 1.147a12.249 12.249 0 0 1 4.653 2.055 5.668 5.668 0 0 1 2.124 4.249 11.571 11.571 0 0 1-1.023 5.784c0 .046-.117 0-.101 0 .923-3.536 1.706-7.847-1.83-10.188-3.016-2.024-6.823-2.202-10.235-2.892z" fill="#263238"/><path d="M105.948 141.922c2.117.24 7.669 4.179 8.646 8.18.977 4.001-2.187 9.986-3.21 10.428-1.024.442-5.753-3.334-7.32-6.133-1.046-1.876-.279-4.086.155-6.288.59-3.241 1.365-6.218 1.729-6.187z" fill="#263238"/><path d="M102.754 153.908c-.69-4.078 1.551-8.164 2.9-11.878 0-.039.077 0 .069 0-.713 3.559-2.799 6.777-2.806 10.483a6.758 6.758 0 0 0 2.636 5.668c1.589 1.147 3.574 1.651 5.427 2.271.124.039.047.218-.077.179-3.675-1.117-7.444-2.505-8.149-6.723zM106.375 142.294a.1.1 0 0 1-.042-.051.097.097 0 0 1 .002-.065.096.096 0 0 1 .045-.048.091.091 0 0 1 .065-.007c3.023 1.38 6.668 3.396 8.319 6.412 1.791 3.272.101 6.746-1.403 9.746h-.062c1.481-3.039 3.039-6.807 1.015-9.986-1.744-2.768-5.086-4.652-7.939-6.001z" fill="#263238"/><path d="M111.097 160.429a9.033 9.033 0 0 0-3.311 6.343c-.31 4.9-2.225 4.132-7.358 5.947-4.342 1.55-4.784 6.613-2.164 8.831 0 0-1.682-2.931 1.163-4.737 3.397-2.164 11.98.775 15.554-4.707 4.621-7.087-3.884-11.677-3.884-11.677z" fill="#263238"/><path d="M111.973 160.933s-.062 0 0 .047c1.938 1.55 3.97 3.101 4.737 5.598.822 2.675-.31 5.551-2.287 7.42-2.217 2.086-4.885 1.465-7.622 1.217a11.121 11.121 0 0 0-5.823.644c-.054 0 0 .124.047.101 3.001-1.024 5.9-.396 8.963-.21a6.095 6.095 0 0 0 5.745-2.977c3.032-4.575.396-9.173-3.76-11.84z" fill="#263238"/><path d="M96.35 127.415a.843.843 0 0 1 1.454.438.847.847 0 0 1-.129.601c-.659.868-1.985-.171-1.326-1.039z" fill="#FFCE28"/><path d="M95.721 128.849a.844.844 0 0 1 1.326 1.039c-.659.86-1.954-.171-1.326-1.039z" fill="#FFCE28"/><path d="M94.845 130.167a.848.848 0 0 1 1.141-.091.847.847 0 0 1 .185 1.13.843.843 0 0 1-1.454-.438.846.846 0 0 1 .128-.601z" fill="#FFCE28"/><path d="M93.83 131.322a.848.848 0 0 1 1.454.438.844.844 0 0 1-.129.601c-.659.869-1.984-.17-1.326-1.039z" fill="#FFCE28"/><path d="M92.604 132.299c.66-.868 1.985.171 1.326 1.039a.844.844 0 0 1-1.326-1.039z" fill="#FFCE28"/><path d="M91.27 133.075a.844.844 0 0 1 1.327 1.039c-.66.822-1.977-.217-1.326-1.039z" fill="#FFCE28"/><path d="M90.007 148.659c-3.636 4.482-23.106 18.609-39.543 18.33-5.583-.085-21.09-23.912-23.96-32.968-2.054-6.506 11.755-9.793 15.663-8.855 4.87 1.178 14.36 21.609 16.236 21.71 5.583.388 15.166-2.97 26.929-4.164 6.055-.581 7.482 2.505 4.675 5.947z" fill="#AD6359"/><path d="M27.055 135.517c-1.039-2.264-5.916-14.848-6.311-18.082-.395-3.233-.853-12.646 1.597-13.181 2.45-.535 2.8 2.194 2.8 2.194s.433-4.008 2.953-4.342c2.52-.333 2.931 3.955 2.931 3.955s.776-4.079 3.28-4.234c2.504-.155 2.225 4.226 2.225 4.226s.504-3.761 2.644-3.008c2.582.907.86 7.753 1.551 11.273.163.776 4.404 16.081 4.404 16.081l-18.074 5.118z" fill="#AD6359"/><path d="M36.546 105.658c-1.248 5.016-.93 7.436.667 12.274 0 .093-.101.163-.14.062-2-4.59-2.838-7.56-.775-12.406.108-.24.31-.17.248.07zM31.126 105.642c-.837 5.327-.512 7.948.775 13.143 0 .069-.1.108-.124.038-1.705-4.985-2.473-7.97-.93-13.181.077-.24.318-.248.28 0zM25.218 106.712c-.442 5.226-.21 8.111 1.698 12.988a.1.1 0 0 1-.054.115.093.093 0 0 1-.068.007.096.096 0 0 1-.056-.037c-2.427-4.784-2.745-8.389-1.683-13.065.078-.349.194-.364.163-.008z" fill="#263238"/><path d="M48.572 132.741s.72-6.443.41-9.343c-.31-2.9-5.427-13.289-7.753-12.312-2.977 1.263-1.202 7.846.093 10.955 0 0-6.893 2.923-6.637 7.925.256 5.001 13.887 2.775 13.887 2.775z" fill="#AD6359"/><path d="M40.547 111.706c-1.884 3.101.077 7.079 1.109 10.188a.302.302 0 0 1-.28.411c-2.806 1.419-6.357 4.233-6.823 7.521a.076.076 0 0 1-.028.038.075.075 0 0 1-.045.015.075.075 0 0 1-.046-.015.076.076 0 0 1-.028-.038c0-3.598 3.28-6.645 6.451-8.002-1.101-3.171-2.892-7.242-.333-10.134.007-.023.038-.008.023.016z" fill="#263238"/><path d="m66.738 145.325 6.777 15.663s10.25-4.877 16.484-11.181c6.234-6.304-.698-8.421-6.73-7.506-6.032.915-16.53 3.024-16.53 3.024z" fill="#EBEBEB"/><path d="M90 149.838c-6.204 6.303-16.485 11.18-16.485 11.18l-2.063-4.768L92.1 144.278c.76 1.256.342 3.086-2.1 5.56z" fill="#C7C7C7"/><path d="M76.074 158.817a120.248 120.248 0 0 1-5.854-13.468c0-.055.07-.093.093 0 .457 1.209 3.683 7.877 5.862 13.46.03.039-.07.07-.101.008z" fill="#263238"/><path d="m74.469 176.308-2.784 21.23h44.436s-5.877-39.815-15.368-52.058c-4.745-6.117-11.103-5.955-15.6-1.279-.985 1.016-10.91 15.197-12.661 21.051-1.528 5.187 1.977 11.056 1.977 11.056z" fill="#EBEBEB"/><path d="m87.402 146.341-2.807 7.529a292.343 292.343 0 0 0-2.667 7.559c-.776 2.544-1.745 5.087-1.365 7.676a19.542 19.542 0 0 0 2.52 7.397l.062.109v.108c-.388 3.373-.845 6.746-1.256 10.08a507.238 507.238 0 0 1-1.365 10.08c.29-3.391.597-6.774.923-10.15.341-3.38.651-6.761 1.023-10.134l.047.21a20.161 20.161 0 0 1-2.706-7.669 11.116 11.116 0 0 1 .287-4.109c.341-1.318.775-2.597 1.186-3.877.86-2.551 1.877-5.032 2.892-7.513 1.016-2.481 2.094-4.862 3.226-7.296zM81.199 156.149a.667.667 0 0 0 .488.775.621.621 0 0 0 .624-.309.608.608 0 0 0 .074-.233.66.66 0 0 0-.488-.776.6.6 0 0 0-.467.12.612.612 0 0 0-.231.423zM78.508 163.477a.659.659 0 0 0 .489.775.616.616 0 0 0 .459-.12.61.61 0 0 0 .231-.415.661.661 0 0 0-.489-.775.598.598 0 0 0-.459.12.597.597 0 0 0-.23.415zM78.167 170.951a.658.658 0 0 0 .489.775.605.605 0 0 0 .462-.12.616.616 0 0 0 .235-.415.667.667 0 0 0-.488-.775.605.605 0 0 0-.462.12.603.603 0 0 0-.236.415z" fill="#263238"/><path d="M80.245 177.146a.661.661 0 0 0 .489.775.605.605 0 0 0 .462-.119.619.619 0 0 0 .236-.416.665.665 0 0 0-.489-.775.623.623 0 0 0-.462.12.608.608 0 0 0-.236.415zM79.439 183.899a.667.667 0 0 0 .488.776.606.606 0 0 0 .69-.543.667.667 0 0 0-.488-.775.606.606 0 0 0-.462.123.595.595 0 0 0-.228.419zM78.702 190.567a.666.666 0 0 0 .489.776.612.612 0 0 0 .698-.543.66.66 0 0 0-.496-.775.593.593 0 0 0-.69.542z" fill="#263238"/><path d="M87.603 220.791c2.241 1.551 6.01-5.18 7.289-6.614 1.279-1.434 1.837-1.388 1.76-.295l2.915-11.568c-1.512 1.171-4.714 3.691-6.42 5.35-2.287 2.217-7.785 11.607-5.544 13.127z" fill="#AD6359"/><path d="M104.398 147.201c9.49 7.653 21.454 21.113 23.896 29.813 1.877 6.714-7.567 30.045-10.382 35.488-1.225 2.373-17.476-4.846-18.19-7.614-.713-2.768 10.615-22.858 10.723-24.99.109-2.132-7.296-16.213-12.343-25.734-6.164-11.537-1.815-13.468 6.296-6.963z" fill="#AD6359"/><path d="M89.2 227.436c1.497 1.628 4.529-.349 4.529-.349s-2.699 3.334-.59 4.652c2.11 1.318 4.986-1.551 4.986-1.551s-2.326 3.195-.116 4.327c2.209 1.132 5.032-1.342 5.032-1.342s-.155 1.226 1.76 1.334c2.744.155 6.66-4.295 8.157-7.102 1.496-2.807 4.892-14.197 5.388-15.949l-17.949-9.754s-.318.232-.83.635l-2.923 11.546c-.047.721-2.101 5.163-2.846 6.443-1.674 2.876-6.28 5.28-4.597 7.11z" fill="#AD6359"/><path d="M93.822 226.893c4.024-3.047 5.257-5.071 6.978-9.723 0-.093.179-.062.147.039-1.294 4.706-2.473 7.474-7.017 9.893-.193.148-.302-.031-.108-.209zM97.924 230.258c3.876-3.535 5.256-5.722 7.451-10.459 0-.07.147 0 .116.046-1.752 4.831-2.993 7.56-7.358 10.576-.194.14-.388-.008-.21-.163zM103.056 233.096c3.528-3.691 5.118-6.033 6.653-10.902a.099.099 0 0 1 .043-.059.098.098 0 0 1 .073-.011.098.098 0 0 1 .07.117c-1.086 5.117-3.047 8.048-6.715 10.948-.256.186-.333.124-.124-.093z" fill="#263238"/><path d="m102.575 168.144 13.701-10.258s-7.118-8.839-14.693-13.444c-7.575-4.606-8.04 2.651-5.715 8.311 2.327 5.661 6.707 15.391 6.707 15.391z" fill="#EBEBEB"/><path d="M113.539 155.94a121.517 121.517 0 0 1-11.746 8.816c-.047 0-.101-.047-.055-.086 1.078-.728 6.816-5.427 11.747-8.823.054-.039.108.046.054.093z" fill="#263238"/><path d="M100.164 162.344c-.83-1.868-1.97-4.59-2.915-6.412h-.047a45.198 45.198 0 0 0 1.233 3.171 1.768 1.768 0 0 0-.1-.162c-.342-.489-.699-.97-1.078-1.435.286.527.596 1.047.93 1.551.21.318.434.62.659.923.24.55.775 1.915 1.031 2.465.403.923 2.373 6.118 2.458 6.056.481-.316.941-.66 1.38-1.032.07-.054 0-.178-.101-.124-.248.21-.868.621-.969.698-.442-.938-.775-1.93-1.217-2.892a181.84 181.84 0 0 1-1.264-2.807z" fill="#263238"/><path d="M94.403 142.557c-.232.776-4.319 5.769-7.955 5.428-1.186-.124-.814-6.622-.814-6.622l-.085-.481-1.148-6.807 8.172-4.652 1.179-.605s.186 1.884.403 4.226v.333c0 .116 0 .256.039.38.039.357.07.713.1 1.07.032.357.047.535.063.822.015.287 0 .566.054.853a44.932 44.932 0 0 1-.008 6.055z" fill="#AD6359"/><path d="M94.155 133.02a13.867 13.867 0 0 1-8.606 7.808l-1.148-6.807 8.172-4.653 1.179-.604s.186 1.915.403 4.256z" fill="#263238"/><path d="M75.88 122.072c-2.466 11.855 4.365 14.67 6.916 15.197 2.326.473 10.29 1.814 13.957-9.731 3.667-11.545-1.063-16.43-6.32-17.833-5.257-1.404-12.095.504-14.553 12.367z" fill="#AD6359"/><path d="M79.88 119.273c.28.015.56.015.838 0 .295.027.591-.041.845-.194a.435.435 0 0 0 .086-.52 1.08 1.08 0 0 0-1-.426c-.39-.009-.77.129-1.063.388a.455.455 0 0 0 .068.66c.066.05.144.082.227.092zM88.03 121.095c-.272-.085-.512-.201-.776-.31a1.405 1.405 0 0 1-.736-.465.428.428 0 0 1 .093-.52 1.073 1.073 0 0 1 1.078-.07c.37.12.684.374.876.714a.466.466 0 0 1-.535.651zM85.936 123.662s.055.046.047.077c-.186.776-.256 1.76.426 2.171v.047c-.884-.303-.775-1.567-.473-2.295z" fill="#263238"/><path d="M86.82 122.995c1.318.147.915 2.783-.302 2.636-1.217-.147-.806-2.807.302-2.636z" fill="#263238"/><path d="M87.34 123.173c.201.179.388.481.667.551.279.07.597-.163.845-.396 0 0 .046 0 .038.039-.07.504-.34.993-.891.985-.55-.008-.775-.504-.837-1.031-.032-.101.07-.225.178-.148zM80.95 122.522c0-.039-.07 0-.07.062-.092.775-.34 1.744-1.116 1.907v.047c.923.008 1.233-1.225 1.187-2.016z" fill="#263238"/><path d="M80.362 121.561c-1.295-.287-1.784 2.326-.582 2.597 1.202.271 1.651-2.357.582-2.597z" fill="#263238"/><path d="M79.772 121.63c-.232.101-.488.318-.736.287-.248-.031-.45-.357-.582-.659h-.046c-.109.504-.039 1.054.426 1.24.465.186.822-.201 1.031-.682.04-.07 0-.225-.093-.186zM81.137 126.368s-.372 1.186-.465 1.76c0 .054.124.101.318.147a2.747 2.747 0 0 0 2.814-.581c.047-.047 0-.117-.07-.093a4.144 4.144 0 0 1-2.605.302c0-.163.698-2.008.605-2.031a5.129 5.129 0 0 0-1.35.077c.699-2.497 1.784-4.861 2.443-7.358a.078.078 0 1 0-.147-.054 41.756 41.756 0 0 0-2.962 7.808c-.047.317 1.202.077 1.419.023z" fill="#263238"/><path d="M84.905 111.233a5.333 5.333 0 0 0-.147 3.101c1.023 2.799 4.319 2.404 5.319 3.567 1 1.163.38 3.101 1.217 4.195 1.17 1.496 2.985 1.132 3.102 2.078.116.946.457 3.954 1.605 4.442 1.147.489 8.42-18.608-7.056-19.446 0 0-2.032-1.062-5.474.272-3.792 1.481-5.94 7.288-5.94 7.288s.086-.077.66-.488c.775-.59 1.147-1.163 1.736-1.551.923-.582 1.365-.287 2.326-.853a10.221 10.221 0 0 0 2.652-2.605z" fill="#263238"/><path d="M85.223 110.403a9.836 9.836 0 0 0-.674 2.326c-.18.77-.142 1.575.108 2.326.338.699.92 1.251 1.636 1.551.706.341 1.55.496 2.272.884.39.201.72.504.954.876.196.383.312.803.34 1.233a4.29 4.29 0 0 0 .652 2.209 2.684 2.684 0 0 0 1.985 1.07 5.678 5.678 0 0 1 2.38.349 5.734 5.734 0 0 0-2.388-.163 2.95 2.95 0 0 1-2.21-1.07 4.355 4.355 0 0 1-.775-2.326 3.043 3.043 0 0 0-.31-1.093 2.092 2.092 0 0 0-.83-.721c-.674-.364-1.488-.543-2.233-.907a4.348 4.348 0 0 1-1.046-.706 2.598 2.598 0 0 1-.722-1.046 4.521 4.521 0 0 1 0-2.466c.192-.807.48-1.589.861-2.326z" fill="#263238"/><path d="M84.859 111.078a8.637 8.637 0 0 1-.946 2.054 3.996 3.996 0 0 1-1.714 1.551 5.848 5.848 0 0 1-1.1.31 1.883 1.883 0 0 0-.893.481c-.23.306-.49.59-.775.845-.304.238-.66.4-1.039.473.342-.139.65-.347.907-.612.246-.277.467-.576.66-.892a1.901 1.901 0 0 1 1.015-.636 6.175 6.175 0 0 0 1.047-.318 4.175 4.175 0 0 0 1.612-1.38c.452-.596.861-1.223 1.226-1.876z" fill="#263238"/><path d="M93.581 126.934s3.187-3.342 4.738-2.156c1.55 1.186-1.233 6.312-3.334 6.754a2.06 2.06 0 0 1-2.206-.76 2.052 2.052 0 0 1-.345-.745l1.147-3.093z" fill="#AD6359"/><path d="M97.481 126.228v.054c-1.488.357-2.419 1.551-3.101 2.799a1.134 1.134 0 0 1 .846-.419 1.111 1.111 0 0 1 .868.373c.038 0 0 .077-.047.062a1.245 1.245 0 0 0-1.434.232 5.82 5.82 0 0 0-.83 1.008c-.085.117-.295 0-.225-.124.225-1.791 1.985-4.117 3.923-3.985z" fill="#263238"/><path d="m85.54 141.875 1.714 5.52 7.196-6.203 1.705 2.326s-7.365 10.22-7.373 9.731l-1.83-4.784-3.435 2.947.907-8.025 1.117-1.512z" fill="#EBEBEB"/><path d="M83.742 147.387c.194-1.318.349-2.651.605-3.962 0-.046.085-.062.093 0 .163 1.303-.613 6.35-.706 7.568.148-.124 3.18-2.582 3.203-2.536.418.776 1.767 4.257 1.853 4.575 1.163-1.628 5.605-7.513 6.978-9.033.039-.039.108 0 .077.054-1.054 1.729-6.978 9.669-7.024 9.638a52.966 52.966 0 0 1-1.908-5.063c-.527.55-3.613 3.349-3.605 3.148.066-1.47.211-2.935.434-4.389z" fill="#263238"/><path d="M232.169 41.094H131.845v100.324h100.324V41.094z" fill="#DBDBDB"/><path d="M174.622 15.67v67.587h67.588V15.67h-67.588zm63.913 63.905h-60.246V19.337h60.246v60.238z" fill="#2C2E35"/><path d="m165.023 100.703 5.427.38a16.749 16.749 0 0 0 2.179-9.878c-.062-.775 1.59 3.8.566 10.08 5.73.395 13.53.938 20.338 1.349.256-2.66.612-5.11.612-5.11.138 1.757.431 3.498.877 5.203.93.062 1.845.109 2.721.155.132-3.787.474-7.563 1.024-11.312a36.356 36.356 0 0 0 2.845 11.521c4.334.218 7.18.28 6.978.062-6.203-7.807-1.209-11.917-2.775-18.608-1.869-8.025-8.646-9.6-8.173-15.507.38-4.839 1.38-13.592-4.652-15.756a11.792 11.792 0 0 0-12.607-3.078c-9.84 3.257-6.692 18.368-7.49 21.377-1.14 4.295-3.28 5.73-5.048 10.614-1.768 4.885.334 8.367.434 11.77.101 3.404-4.342 6.676-3.256 6.738z" fill="#263238"/><path d="M208.877 102.06a17.054 17.054 0 0 1-1.907-4.334 8.932 8.932 0 0 1 .225-4.551 45.191 45.191 0 0 0 1.015-4.745c.255-1.67.17-3.373-.248-5.01a11.085 11.085 0 0 0-2.411-4.419 29.408 29.408 0 0 0-3.574-3.326 17.894 17.894 0 0 1-3.296-3.342 8.775 8.775 0 0 1-1.55-4.412 8.169 8.169 0 0 0 1.039 4.722 16.264 16.264 0 0 0 3.155 3.738 36.627 36.627 0 0 1 3.311 3.372 10.622 10.622 0 0 1 2.086 3.993c.358 1.485.443 3.022.248 4.536-.163 1.551-.52 3.102-.776 4.653a16.07 16.07 0 0 0-.263 2.465 7.07 7.07 0 0 0 .434 2.481 13.884 13.884 0 0 0 2.512 4.179zM174.637 55.539a24.199 24.199 0 0 0-1.55 5.722 85.34 85.34 0 0 0-.776 5.87l-.349 2.922a14.597 14.597 0 0 1-.566 2.784 15.847 15.847 0 0 1-2.869 4.885 22.42 22.42 0 0 0-1.698 2.512c-.51.899-.916 1.854-1.209 2.845-.261.986-.45 1.988-.566 3.001a12.67 12.67 0 0 0 0 3.101c.132 1.016.372 1.985.566 2.931.197.942.306 1.9.326 2.861a6.087 6.087 0 0 1-2.606 4.893 6.202 6.202 0 0 0 3.218-4.87c.062-1.009.023-2.022-.116-3.023-.132-.993-.334-1.954-.396-2.9a15.496 15.496 0 0 1 .706-5.614c.287-.892.667-1.752 1.132-2.566a21.43 21.43 0 0 1 1.636-2.365 27.978 27.978 0 0 0 1.729-2.473c.543-.884.973-1.832 1.279-2.823.272-.986.449-1.996.528-3.016.1-.992.162-1.977.224-2.962.132-1.97.233-3.93.419-5.885.109-1.97.423-3.925.938-5.83z" fill="#263238"/><path d="M221.973 138.665c0-.116 0-.233-.062-.349.031.143.054.288.07.434a.345.345 0 0 0-.008-.085zM202.558 142.1c.064.042.131.078.202.108v-.054l-.21-.047.008-.007z" fill="#FFCE28"/><path d="M174.815 87.824c-12.188 13.709-26.943 41.986-23.632 47.39 3.682 6.017 21.26-13.506 20.655-14.39-.512-.776 5.203-17.663 9.359-30.03s-3.365-6.358-6.382-2.97z" fill="#D3766A"/><path d="M174.815 87.824c-12.188 13.709-26.943 41.986-23.632 47.39 3.682 6.017 21.26-13.506 20.655-14.39-.512-.776 5.203-17.663 9.359-30.03s-3.365-6.358-6.382-2.97z" fill="#455A64"/><path d="M176.459 104.983c-1.194 3.606-2.279 6.979-3.101 9.692-1.884.086-7.397-.217-13.119-5.722a160.202 160.202 0 0 1 5.505-9.04 17.132 17.132 0 0 0 10.715 5.07z" fill="#EBEBEB"/><path d="m163.061 141.464 3.055-20.741s-4.9-8.529-2.054-14.731c1.434-3.102 11.289-18.33 16.592-22.184 4.978-3.613 11.801-.317 14.12 2.823 6.668 9.04 9.916 25.308 13.638 54.81l-45.351.023z" fill="#455A64"/><path d="M171.985 93.392a146.354 146.354 0 0 0-2.946 4.202c.264-.55.527-1.1.775-1.651 0-.039 0-.078-.054 0a43.94 43.94 0 0 0-1.008 2.093 152.938 152.938 0 0 0-3.737 5.784c-.523.82-.967 1.687-1.326 2.59a11.602 11.602 0 0 0-.643 2.745 13.798 13.798 0 0 0-.047 2.83c.063.968.2 1.93.411 2.876a17.894 17.894 0 0 0 1.008 3.148c.217.497.442.985.69 1.474.248.488.675 1.333.675 1.364-.093.497-.187.845-.249 1.264-.062.419-.131.853-.193 1.279-.132.853-1.233 9.134-1.357 9.987-.248 1.69-.465 3.381-.675 5.079-.116.977-.186 1.954-.318 2.923 0 .039.055.054.062 0 .14-.845.349-1.675.497-2.52.147-.845.31-1.69.473-2.536.317-1.705 1.55-10.855 1.814-12.568.077-.473.147-.946.225-1.427a8.977 8.977 0 0 0 .178-1.55 38.278 38.278 0 0 1-2.109-5.304 18.61 18.61 0 0 1-.597-2.822 14.705 14.705 0 0 1 0-2.799 12.71 12.71 0 0 1 .535-2.753c.312-.91.712-1.788 1.194-2.621.993-1.76 2.047-3.489 3.102-5.202a360.62 360.62 0 0 1 3.69-5.808s-.046-.108-.07-.077z" fill="#263238"/><path d="M151.183 135.215c3.101 3.993 11.033 4.373 30.898 7.195 2.744.395 10.723-18.26 7.808-18.826-3.668-.721-18.066-2.706-19.136-2.714-9.033-.108-21.687 11.639-19.57 14.345z" fill="#D3766A"/><path d="M185.911 122.886s8.397.83 12.677 2.629a29.826 29.826 0 0 1 11.258 8.808c3.226 4.086 8.188 16.205 4.947 18.244-2.931 1.845-7.381-10.801-7.381-10.801s6.66 12.142 2.721 13.716c-3.939 1.574-8.273-13.398-8.273-13.398s6.567 12.631 2.249 13.608c-3.265.775-7.948-12.592-7.948-12.592s5.567 10.894 2.241 11.793c-3.675 1-8.769-11.033-8.769-11.033-8.839.876-13.414-2.326-16.391-4.986-.76-.643 12.669-15.988 12.669-15.988z" fill="#D3766A"/><path d="M205.334 137.424c.837 1.396 1.69 2.807 2.396 4.273a52.189 52.189 0 0 1 1.93 4.489 27.269 27.269 0 0 1 1.644 6.148c-.822-3.698-3.272-8.986-3.985-10.459-.714-1.473-1.334-2.962-2.039-4.427l.054-.024zM199.992 139.882c.984 1.83 2.039 3.613 2.946 5.482.907 1.869 1.551 3.722 2.326 5.645.062.147 0 .131-.108 0-.846-1.892-1.776-3.575-2.644-5.428-.869-1.853-1.667-3.791-2.606-5.637.024-.077.07-.093.086-.062zM195.022 141.162a45.973 45.973 0 0 1 3.876 8.738c.055.147-.069.116-.131-.039-1.233-2.923-2.171-5.234-3.823-8.637-.039-.055.047-.117.078-.062z" fill="#263238"/><path d="m192.253 123.034-16.352 19.244s-22.33-1.551-24.904-7.443c-2.575-5.893 14.429-14.461 19.732-13.957 5.304.504 21.524 2.156 21.524 2.156z" fill="#455A64"/><path d="M162.123 123.39c1.287-.884 4.931-2.962 8.606-2.551v.062c-3.016.093-7.265 1.791-8.575 2.536-.031.023-.062-.031-.031-.047zM172.443 138.952c6.428-6.808 12.15-14.941 13.251-16.283.046-.062-.062-.139-.109-.077-1.008 1.38-8.529 9.963-13.258 16.282-.055.07.054.14.116.078z" fill="#263238"/><path d="m155.503 96.959-7.249 35.5 27.265 5.567 7.249-35.5-27.265-5.567z" fill="#FFCE28"/><path d="m176.077 99.242-12.92-2.652-.804 3.919 12.919 2.652.805-3.92z" fill="#EBEBEB"/><path d="m173.133 98.656-1.59-.333.365-1.799-3.861-.799-.373 1.807-1.589-.325.675-3.288 7.071 1.45-.698 3.287z" fill="#EBEBEB"/><path d="M198.038 90.957c13.134 16.709 18.089 46.77 10.8 49.096-6.66 2.14-34.053-4.714-42.218-7.49-2.396-.814 5.009-19.446 7.575-18.609 3.102 1.047 20.036 5.063 20.369 5.071.706 0-3.063-18.469-4.652-26.85-2.28-11.662 3.194-7.498 8.126-1.218z" fill="#D3766A"/><path d="M152.291 106.961a3.003 3.003 0 0 0-.263 3.427 4.481 4.481 0 0 0-2.443 1.814c-.945 1.551 1.125 3.76 1.125 3.76a5.499 5.499 0 0 0-2.272 2.326c-.775 1.605 1.023 4.102 1.023 4.102a4.817 4.817 0 0 0-.713 3.295c.574 3.055 4.986 4.792 7.754 5.924 2.768 1.132 11.785 1.714 13.483 2.001l7.413-17.888s-11.096-8.63-14.577-9.498c-2.892-.729-8.971-1.062-10.53.737z" fill="#D3766A"/><path d="M152.268 110.155c3.303 0 6.412 1.023 9.576 1.845.07 0 0 .124 0 .109-3.102-.853-6.405-1.07-9.568-1.799a.076.076 0 0 1-.056-.02.078.078 0 0 1-.005-.11.076.076 0 0 1 .053-.025zM150.865 115.753a8.57 8.57 0 0 1 2.186.519c.776.241 1.551.489 2.264.776a78.358 78.358 0 0 1 4.482 1.698c.062 0 0 .132 0 .108a158.974 158.974 0 0 0-4.536-1.481c-.775-.232-1.551-.457-2.287-.674a10.325 10.325 0 0 1-2.14-.713.115.115 0 0 1-.098-.087.113.113 0 0 1-.003-.045.121.121 0 0 1 .045-.078.12.12 0 0 1 .087-.023zM149.523 122.398a6.067 6.067 0 0 1 1.947.581c.674.256 1.364.504 2.046.776 1.365.488 2.738.985 4.118 1.426a.066.066 0 0 1 .029.023.063.063 0 0 1-.029.094c-1.404-.45-2.823-.876-4.226-1.334l-2.063-.69a5.425 5.425 0 0 1-1.822-.775.065.065 0 0 1-.019-.004.046.046 0 0 1-.016-.011.042.042 0 0 1-.011-.016.045.045 0 0 1-.004-.02c0-.006.001-.013.004-.019a.036.036 0 0 1 .011-.016.036.036 0 0 1 .016-.011.043.043 0 0 1 .019-.004z" fill="#263238"/><path d="M194.339 118.273c.209-.132-3.722-17.965-5.04-27.277-1.318-9.313 2.838-8.413 8.816-.458 6.412 8.529 17.833 31.604 13.871 48.693-1.279 5.536-40.923-2.218-40.923-2.218l5.342-22.788s17.585 4.242 17.934 4.048z" fill="#455A64"/><path d="M210.474 116.582c-6.466 1.892-13.483.931-16.344.396-.411-2.241-1.411-7.095-2.435-12.336 6.792.775 11.398-.217 13.918-1.062a87.966 87.966 0 0 1 4.861 13.002z" fill="#EBEBEB"/><path d="M176.227 134.671c2.411-7.939 3.737-16.639 4.078-18.143 0-.07-.101-.085-.108 0-.256 1.489-2.862 11.274-4.094 18.136-.016.062.1.077.124.007zM201.767 120.909c-.775-.131-21.004-5.83-25.424-6.52-.07 0 0-.241.062-.225a186.939 186.939 0 0 1 25.634 6.373c1.008.403 1.155.621-.272.372z" fill="#263238"/><path d="M194.122 118.451s-1.334-6.87-1.551-7.296c-.217-.426-.775-1.419-.992-1.876-.442-.923-.822-1.869-1.225-2.807 0-.078.085-.132.116-.054.442.899.954 1.767 1.473 2.628.256.419.512.845.776 1.256 0 0-1.249-6.668-1.427-7.847 0-.085.078-.116.109 0 .379 1.187 3.031 14.608 3.396 16.097a4.658 4.658 0 0 1-.675-.101zM179.204 138.425c-1.326-.365-6.621-1.218-7.908-1.404.239-.951.395-1.921.465-2.9a.072.072 0 0 0-.023-.023.06.06 0 0 0-.063 0 .072.072 0 0 0-.023.023 23.222 23.222 0 0 0-.969 3.319c0 .108 7.133 1.008 8.529 1.078.015-.016.031-.078-.008-.093z" fill="#263238"/><path d="M177.428 85.49s.528 5.242 4.877 6.056c4.35.814 12.468-4.892 12.468-4.892a12.106 12.106 0 0 0-9.157-4.404c-5.668-.008-8.188 3.24-8.188 3.24z" fill="#D3766A"/><path d="M189.904 84.025c-.232.776-4.334 5.754-7.971 5.374-1.186-.132-.775-6.63-.775-6.63l-.077-.48-1.125-6.808 8.188-4.652 1.179-.605s.186 1.884.387 4.234v.333c0 .116 0 .256.039.38 0 .349.07.705.093 1.062.023.357.047.543.062.822l.047.853a44.767 44.767 0 0 1-.047 6.117z" fill="#D3766A"/><path d="M189.687 74.489a13.87 13.87 0 0 1-8.63 7.8l-1.124-6.808 8.188-4.652 1.178-.605s.194 1.915.388 4.265z" fill="#263238"/><path d="M172.071 62.773c-3.187 11.677 3.458 14.91 5.978 15.592 2.326.62 10.149 2.443 14.53-8.846 4.381-11.29-.046-16.47-5.21-18.167-5.164-1.698-12.112-.264-15.298 11.42z" fill="#D3766A"/><path d="M176.281 60.486h.838c.292.048.591-.001.853-.14a.42.42 0 0 0 .124-.512 1.065 1.065 0 0 0-.962-.488 1.551 1.551 0 0 0-1.093.31.462.462 0 0 0-.161.496.463.463 0 0 0 .401.334zM184.609 61.649a6.714 6.714 0 0 1-.776-.35 1.336 1.336 0 0 1-.713-.495.423.423 0 0 1 .116-.512 1.05 1.05 0 0 1 1.086 0c.367.142.667.42.837.775a.458.458 0 0 1-.55.582zM181.933 65.386s.047.054 0 .085c-.224.775-.341 1.745.318 2.187v.038c-.829-.34-.651-1.597-.318-2.31z" fill="#263238"/><path d="M182.856 64.727c1.318.217.775 2.83-.434 2.62-1.21-.209-.659-2.806.434-2.62z" fill="#263238"/><path d="M183.345 64.967c.193.194.364.504.635.59.272.085.605-.132.869-.35 0 0 .046 0 0 .04-.101.503-.396.976-.946.938-.551-.04-.776-.55-.776-1.078.031-.093.14-.217.218-.14zM177.126 63.789s-.07 0-.077.062c-.148.814-.45 1.713-1.241 1.822v.046c.915.07 1.31-1.132 1.318-1.93z" fill="#263238"/><path d="M176.591 62.796c-1.279-.38-1.938 2.202-.775 2.55 1.163.35 1.845-2.232.775-2.55z" fill="#263238"/><path d="M176.01 62.827c-.241.085-.504.28-.776.233-.271-.047-.426-.388-.535-.698h-.046c-.14.488-.109 1.046.341 1.264.45.217.83-.148 1.078-.605.069-.07.031-.225-.062-.194zM179.871 71.496c-.225.155-.457.387-.775.364-.3-.055-.585-.17-.838-.341h-.046a1.123 1.123 0 0 0 .961.612.892.892 0 0 0 .775-.62c.016-.015-.038-.039-.077-.015zM177.142 67.843s-.427 1.171-.551 1.737c0 .055.117.109.31.163a2.74 2.74 0 0 0 2.838-.434c.054-.047 0-.117-.07-.093a4.14 4.14 0 0 1-2.613.163c0-.163.776-1.97.714-2a4.997 4.997 0 0 0-1.357 0c.83-2.459 2.039-4.762 2.822-7.22 0-.093-.101-.147-.139-.07a41.766 41.766 0 0 0-3.365 7.646c-.101.326 1.163.155 1.411.108z" fill="#263238"/><path d="M177.126 69.565c.216.517.56.971 1 1.318.248.182.546.282.853.287.667 0 .838-.574.853-1.093a3.491 3.491 0 0 0-.077-.822 4.29 4.29 0 0 1-2.629.31z" fill="#263238"/><path d="M178.126 70.883c.248.182.546.282.853.287.667 0 .838-.574.853-1.093a1.553 1.553 0 0 0-1.706.806z" fill="#FF9CBD"/><path d="M191.928 69.325c-1.248-.442-3.551-4.877-1.892-11.026 0 0-1.109 5.629-.923 6.552.186.922-1.287-2.497 0-7.475a20.737 20.737 0 0 1-5.823 1.179c-2.512 0-3.938-.45-4.055-.667-.116-.217 3.621-.31 4.854-1.116 0 0-7.025 1.108-9.948.504-.333-.07 1.217-6.979 6.467-8.6 5.249-1.62 11.351 3.505 12.715 5.862 0 0 2.117.946 3.583 4.909 1.465 3.962-3.637 10.35-4.978 9.877z" fill="#263238"/><path d="M190.121 69.58s3.272-3.248 4.792-2.016c1.52 1.233-1.419 6.273-3.528 6.645a2.047 2.047 0 0 1-2.504-1.55l1.24-3.079z" fill="#D3766A"/><path d="M194.037 68.991v.054c-1.489.31-2.458 1.466-3.21 2.706a1.115 1.115 0 0 1 .86-.4 1.123 1.123 0 0 1 .861.4s0 .078-.054.063a1.258 1.258 0 0 0-1.442.186 6.41 6.41 0 0 0-.853.984c-.093.117-.303 0-.225-.124.302-1.814 2.124-4.04 4.063-3.869z" fill="#263238"/><path d="M221.911 138.316c.031.143.054.288.07.434a.303.303 0 0 0 0-.085l-.07-.349z" fill="#FFCE28"/><path d="M221.911 138.316c.031.143.054.288.07.434a.303.303 0 0 0 0-.085l-.07-.349z" fill="#FFCE28"/><path d="M221.911 138.316c.031.143.054.288.07.434a.303.303 0 0 0 0-.085l-.07-.349z" fill="#DBDBDB"/><path d="M.228 8.723v30.533H30.8V8.723H.228zm2.326 28.254V11.026H28.49v25.95H2.554z" fill="#EBEBEB"/><path d="M125.674.915H21.954V96.43h103.72V.915z" fill="#414249"/><path d="M92.34 48.282C104.98 61.09 120.875 88.034 117.929 93.5c-3.303 6.086-20.896-11.871-20.834-12.926.054-.775-6.133-17.159-10.855-29.06-4.722-11.902 2.977-6.405 6.102-3.233z" fill="#F7A9A0"/><path d="M96.962 80.599c-.535-1.753-8.963-23.33-11.367-30.162-2.403-6.83-.178-8.932 6.7-2.683 6.877 6.25 21.95 27.138 25.392 38.218 3.311 10.661-2.186 10.661-9.413 5.753C102.312 87.701 96.962 80.6 96.962 80.6z" fill="#FFCE28"/><path opacity=".1" d="M91.1 48.46a5.575 5.575 0 0 1-1.194 2.605 5.28 5.28 0 0 1 .427-1.38c.2-.44.459-.852.767-1.225zm20.842 29.68c-.21.437-.354.902-.427 1.38.316-.368.577-.78.776-1.224.205-.439.348-.903.426-1.38a4.84 4.84 0 0 0-.775 1.225zm-7.451-11.343c-.21.44-.353.907-.427 1.388a5.31 5.31 0 0 0 .776-1.233c.206-.437.35-.902.426-1.38-.314.37-.575.783-.775 1.225zm-7.754-2.845a4.847 4.847 0 0 0-1.38-.427 5.576 5.576 0 0 0 2.605 1.194 5.068 5.068 0 0 0-1.21-.767h-.015zm6.978 11.467a4.974 4.974 0 0 0-1.388-.426 5.29 5.29 0 0 0 1.233.775c.438.207.902.35 1.38.427a5.21 5.21 0 0 0-1.209-.776h-.016zM98.04 55.78a4.847 4.847 0 0 0-1.38-.426c.369.316.781.577 1.225.775.436.21.901.353 1.38.427a5.073 5.073 0 0 0-1.21-.776h-.015zm-4.327 15.314c.164.456.391.886.675 1.28a5.614 5.614 0 0 0-1-2.691c.05.483.164.958.34 1.41h-.015zm14.6 13.661c.163.457.39.888.675 1.28a5.627 5.627 0 0 0-1-2.69c.045.484.16.959.341 1.41h-.016zm-9.831-2.326.255.303c.423-.156.823-.37 1.187-.636-.49.049-.971.169-1.427.357l-.015-.023zm17.298 8.157c.456-.162.887-.39 1.279-.674-.483.04-.959.15-1.411.325-.458.16-.889.387-1.279.675a5.34 5.34 0 0 0 1.426-.302l-.015-.024zM89.829 58.958c-.316.117-.622.26-.915.427l.07.194c.33-.059.655-.15.969-.272.46-.16.894-.386 1.287-.674-.48.052-.949.17-1.396.349l-.015-.024z" fill="#000"/><path d="M95.45 96.455H47.378s7.637-37.683 26.06-53.996c2.279-2.016 7.412-1.551 10.77.108 1.193.597 5.489 6.606 6.714 12.29 1.225 5.683 4.667 41.427 4.528 41.598z" fill="#FFCE28"/><path d="M91.372 57.206c.38 1.271.69 2.582.946 3.877a1.03 1.03 0 0 1 0-.156c0-.775 0-1.496.1-2.24 0 0 .07-.047.07 0 .098.748.12 1.504.062 2.256 0 .349-.039.706-.07 1.062.101.59.194 1.186.264 1.776.147 1.116.52 5.295.55 6.125 0 .17-.193.202-.24 0-.225-.837-.822-5.148-1.016-6.257a60.697 60.697 0 0 1-.775-6.49c.023 0 .093 0 .109.047z" fill="#263238"/><path opacity=".1" d="M76.485 52.298a5.122 5.122 0 0 1-.434 1.38 4.847 4.847 0 0 1-.776 1.225c.08-.478.226-.942.434-1.38.198-.444.459-.857.776-1.225zm-6.513 19.136c-.21.436-.354.901-.427 1.38a5.575 5.575 0 0 0 1.194-2.605c-.313.37-.571.782-.767 1.225zM54.364 78.28c-.21.44-.353.907-.427 1.388.314-.37.575-.783.776-1.225.209-.44.352-.907.426-1.388-.314.37-.575.783-.775 1.225zm11.475 12.274c-.21.436-.354.902-.427 1.38a5.486 5.486 0 0 0 1.202-2.613 5.028 5.028 0 0 0-.775 1.233zm20.028-23.71c-.206.44-.35.907-.427 1.388.317-.371.578-.787.775-1.233.21-.436.355-.901.427-1.38a5.49 5.49 0 0 0-.775 1.225zm6.311 13.018c-.21.44-.353.907-.427 1.388.315-.37.576-.783.776-1.225.21-.44.353-.907.426-1.388a5.425 5.425 0 0 0-.775 1.225zm-15.275 9.382a5.553 5.553 0 0 0-.426 1.388c.317-.371.578-.787.775-1.233.21-.437.356-.902.434-1.38-.316.37-.58.782-.783 1.225zm-14.63-25.378a5.212 5.212 0 0 0-.435 1.38c.319-.367.58-.78.776-1.224.209-.438.355-.902.434-1.38a4.985 4.985 0 0 0-.776 1.224zm18.158-4.28a4.846 4.846 0 0 0-1.38-.426c.37.316.782.577 1.225.775.438.206.903.35 1.38.427a5.07 5.07 0 0 0-1.225-.776zm3.032 15.461a4.845 4.845 0 0 0-1.38-.426c.37.313.783.574 1.225.775.437.207.902.35 1.38.426a4.844 4.844 0 0 0-1.225-.775zM55.209 91.43a5.118 5.118 0 0 0-1.38-.434c.367.319.78.58 1.225.776.438.207.902.353 1.38.434a4.85 4.85 0 0 0-1.225-.776zm28.75 3.102a5.194 5.194 0 0 0-1.38-.427c.37.316.782.577 1.225.776l.295.132c.256 0 .504 0 .775.046a5.593 5.593 0 0 0-.915-.504v-.023zM66.01 78.885a5.108 5.108 0 0 0-1.38-.426c.368.318.78.58 1.225.775.438.208.902.352 1.38.427a5.317 5.317 0 0 0-1.224-.753v-.023zm14.422-33.007a5.122 5.122 0 0 0-1.38-.434 5.1 5.1 0 0 0 1.225.775c.44.202.904.346 1.38.427a4.845 4.845 0 0 0-1.225-.745v-.023zm3.102 7.172c.16.457.388.888.674 1.28a5.282 5.282 0 0 0-.325-1.412 5.186 5.186 0 0 0-.675-1.279c.044.492.159.975.341 1.434l-.015-.023zm7.683 35.783c.16.458.387.89.675 1.28a5.614 5.614 0 0 0-1-2.691c.04.483.15.959.325 1.411zM70.6 62.06c.165.455.392.885.674 1.28a5.05 5.05 0 0 0-.318-1.412 5.329 5.329 0 0 0-.674-1.28c.029.481.123.956.279 1.412h.039zm5.939 15.74c.16.457.388.888.674 1.279a5.125 5.125 0 0 0-.325-1.411 5.204 5.204 0 0 0-.675-1.28c.022.481.114.957.272 1.412h.054zM49.006 96.26a1.65 1.65 0 0 0 0 .195h.124l-.124-.194zm13.522-.061a5.107 5.107 0 0 0-.674-1.287c.039.483.149.959.325 1.41l.047.133h.388c-.086-.085-.086-.17-.086-.256zm-2.76-11.096c.164.456.391.887.675 1.28-.04-.484-.15-.96-.326-1.411a4.938 4.938 0 0 0-.675-1.28c.029.482.126.957.287 1.412h.039zm11.63-37.046c.158.458.386.89.675 1.28a5.125 5.125 0 0 0-.326-1.412 5.198 5.198 0 0 0-.674-1.28c.03.483.128.958.294 1.412h.031zm12.84 36.31a5.187 5.187 0 0 0 1.28-.675 5.05 5.05 0 0 0-1.412.318 5.327 5.327 0 0 0-1.279.675 5.048 5.048 0 0 0 1.411-.318zM71.646 95.935c.457-.162.888-.39 1.28-.674a5.614 5.614 0 0 0-2.69 1c.483-.04.958-.15 1.41-.326zM50.254 85.46c0 .109-.07.217-.1.326.231-.114.452-.249.658-.403-.187.013-.374.039-.558.077zm10.964-13.328a5.11 5.11 0 0 0 1.287-.675c-.484.04-.96.15-1.411.326a5.11 5.11 0 0 0-1.287.674 5.277 5.277 0 0 0 1.41-.325zm10.08 12.731a5.068 5.068 0 0 0 1.31-.636 5.614 5.614 0 0 0-2.69 1 5.052 5.052 0 0 0 1.387-.364h-.008zm5.962-18.26c.458-.165.89-.392 1.287-.674a4.985 4.985 0 0 0-1.411.318 5.19 5.19 0 0 0-1.28.674 4.99 4.99 0 0 0 1.404-.318zm12.677-7.272a4.88 4.88 0 0 0 1.287-.675c-.483.04-.959.15-1.41.326a4.94 4.94 0 0 0-1.28.674 5.008 5.008 0 0 0 1.434-.325h-.03zm-22.664-4.25c.457-.162.888-.39 1.28-.674a5.614 5.614 0 0 0-2.69 1c.493-.037.98-.147 1.441-.325h-.03z" fill="#000"/><path d="M31.863 27.626c-.101-2.326.364-12.926 1.155-15.849.79-2.923 3.675-11.18 5.978-10.8 2.303.38 1.652 2.86 1.652 2.86s1.767-3.295 4.055-2.705c2.287.589 1.14 4.427 1.14 4.427s2.062-3.249 4.303-2.497c2.24.752.442 4.412.442 4.412s1.744-3.055 3.326-1.66c1.9 1.676-1.962 6.979-2.59 10.243-.147.776-1.83 15.376-1.83 15.376l-17.631-3.807z" fill="#F7A9A0"/><path d="M50.735 7.18c-2.838 3.876-3.404 6.078-3.714 10.8 0 .093-.147.1-.147 0-.117-4.652.201-7.505 3.675-10.956.17-.155.349-.023.186.155zM46.075 5.28c-2.59 4.287-3.225 6.66-3.923 11.576 0 .07-.124.062-.124 0 .279-4.885.659-7.754 3.807-11.63.147-.225.356-.148.24.054zM40.617 4.11c-2.203 4.334-3.009 6.908-3.102 11.77a.093.093 0 0 1-.178 0c-.419-4.963.566-8.18 3.101-11.833.217-.24.318-.21.178.062z" fill="#263238"/><path d="M49.347 34.48s4.38-4.133 5.908-6.366c1.528-2.233 4.148-12.677 1.923-13.375-2.869-.891-5.567 4.83-6.52 7.808 0 0-6.638-2.078-9.46 1.613-2.822 3.69 8.15 10.32 8.15 10.32z" fill="#F7A9A0"/><path d="M56.325 14.755c-3.202 1.07-4.202 5.055-5.35 7.878a.28.28 0 0 1-.442.124c-2.837-.69-7.04-.83-9.304 1.217a.072.072 0 0 1-.126-.041.071.071 0 0 1 .017-.052c2.18-2.535 6.32-2.73 9.382-1.783 1.125-2.908 2.326-6.87 5.854-7.374-.03-.008-.03.023-.03.03z" fill="#263238"/><path d="M76.12 48.08c-2.884 4.993-19.554 20.384-34.116 23.051-1.969.357-9.474-1.225-11.048-6.203-2.8-8.87-.559-27.184.868-38.21.28-2.147 20.268 2.272 19.748 5.56-.573 3.644-2.713 17.019-2.38 17.174 1.194.55 13.956-4.97 22.354-6.777 5.97-1.287 6.8 1.559 4.574 5.405z" fill="#F7A9A0"/><path d="m29.025 32.162 22.78 4.93s-2.07 11.631-1.667 11.577c.403-.054 16.391-5.9 22.555-6.513 6.164-.612 6.157 2.101 3.032 7.188C72.6 54.43 52.13 71.457 42.043 71.457c-5.133 0-9.909-3.288-10.855-4.862-2.876-4.853-2.163-34.433-2.163-34.433z" fill="#455A64"/><path d="m29.025 32.162 22.78 4.93s-2.07 11.631-1.667 11.577c.403-.054 16.391-5.9 22.555-6.513 6.164-.612 6.157 2.101 3.032 7.188C72.6 54.43 52.13 71.457 42.043 71.457c-5.133 0-9.909-3.288-10.855-4.862-2.876-4.853-2.163-34.433-2.163-34.433z" fill="#FFCE28"/><path opacity=".1" d="M61.667 48.382a5.11 5.11 0 0 0-.426 1.38c.319-.367.58-.78.775-1.225.21-.436.353-.901.427-1.38a5.316 5.316 0 0 0-.776 1.225zM43.572 68.72c-.21.436-.354.901-.427 1.38a5.574 5.574 0 0 0 1.194-2.605c-.311.37-.57.783-.767 1.225zM30.157 54.763c-.213.436-.36.901-.434 1.38.315-.369.576-.781.775-1.224.203-.44.346-.904.426-1.38a4.98 4.98 0 0 0-.767 1.224zm19.826.055c-.206.44-.35.907-.427 1.388.319-.37.58-.786.776-1.233.21-.437.355-.902.434-1.38a5.166 5.166 0 0 0-.783 1.232v-.007zm-9.94 5.753a5.28 5.28 0 0 0-.427 1.38c.319-.367.58-.78.776-1.225.209-.437.355-.902.434-1.38a5.1 5.1 0 0 0-.783 1.225zm.884-14.003a5.008 5.008 0 0 0-.427 1.38 5.575 5.575 0 0 0 1.194-2.605c-.327.367-.598.78-.806 1.225h.039zM30.738 36.155c-.209.437-.355.902-.434 1.38a4.65 4.65 0 0 0 .776-1.225c.208-.438.354-.902.434-1.38-.316.369-.577.781-.776 1.225zm40.963 11.762a5.069 5.069 0 0 0-.675-1.28c.04.484.15.96.326 1.412.158.457.383.888.666 1.28a5.049 5.049 0 0 0-.302-1.404l-.015-.008zm-13.492 9.304a5.187 5.187 0 0 0-.674-1.28c.04.484.15.96.326 1.412.159.458.386.89.674 1.28a5.278 5.278 0 0 0-.31-1.396l-.016-.016zm-10.134-10.49a5.072 5.072 0 0 0-.674-1.28c.094.969.44 1.896 1 2.69a5.056 5.056 0 0 0-.31-1.395l-.016-.015zm-1.31 15.181a5.072 5.072 0 0 0-.675-1.28c.04.484.15.96.326 1.412.161.457.388.888.675 1.28a5.053 5.053 0 0 0-.31-1.396l-.016-.016zM33.77 60.276a4.937 4.937 0 0 0-.675-1.28c.046.484.155.958.326 1.412.163.456.39.887.675 1.28a4.993 4.993 0 0 0-.31-1.396l-.016-.016zm4.102-21.462a5.114 5.114 0 0 0-.675-1.287c.038.486.145.964.318 1.42.167.453.394.884.675 1.278a4.988 4.988 0 0 0-.303-1.395l-.015-.016zM36.32 50.987a5.187 5.187 0 0 0-.675-1.279c.04.484.15.959.326 1.411.16.457.388.889.675 1.28a4.992 4.992 0 0 0-.295-1.396l-.031-.016zm30.86 3.776c-.457.163-.888.39-1.28.675.483-.041.959-.15 1.411-.326a5.07 5.07 0 0 0 1.28-.674c-.484.04-.96.15-1.412.325zm-24.099-.558a5.48 5.48 0 0 0-1.28.675c.484-.04.96-.15 1.412-.326.457-.16.888-.388 1.28-.675-.485.03-.963.13-1.42.295l.008.031zm2.28-14.313a5.187 5.187 0 0 0-1.28.675 5.01 5.01 0 0 0 1.404-.326c.458-.158.89-.385 1.28-.675-.483.03-.958.13-1.412.295l.008.031zm-12.933 4.49a5.187 5.187 0 0 0-1.28.674 5.505 5.505 0 0 0 2.69-.993c-.483.03-.96.127-1.418.287l.008.031zm21.5 19.383a5.328 5.328 0 0 0-1.279.675 5.505 5.505 0 0 0 2.69-.993 5.047 5.047 0 0 0-1.418.318h.007zm-17.313 3.792c-.457.162-.888.39-1.28.674.484-.039.96-.149 1.411-.325.458-.161.889-.388 1.28-.675-.486.04-.964.15-1.42.326h.009zM55.279 48.28a5.186 5.186 0 0 0-1.28.675 5.482 5.482 0 0 0 2.69-.992 4.981 4.981 0 0 0-1.418.317h.008z" fill="#000"/><path d="M50.316 48.77a34.89 34.89 0 0 1-.907 5.148c-.38 1.721-.922 3.388-1.426 5.07h-.063c.442-1.69.776-3.419 1.133-5.132.356-1.714.628-3.427 1.07-5.117 0-.124.201-.086.193.03zM50.464 41.388c-2.637-.651-5.304-1.17-7.979-1.674-2.675-.505-5.35-1.024-8.032-1.466-1.551-.248-3.04-.504-4.567-.706 0 0-.055.063 0 .07 2.628.66 5.303 1.187 7.97 1.714 2.667.527 5.35 1.023 8.025 1.496 1.551.264 3.04.504 4.567.698.054.016.093-.109.016-.132zM57.984 64.657c.42-.372.884-.69 1.326-1.031.442-.342.853-.675 1.287-1l2.637-2.024c1.752-1.357 3.473-2.76 5.21-4.14.993-.776 1.97-1.551 2.947-2.389a.04.04 0 0 1 .03-.01.04.04 0 0 1 .028.014.041.041 0 0 1 .006.046 112.955 112.955 0 0 1-3.654 3.316l.465-.226c.48-.24.946-.496 1.41-.775 0 0 .07.039 0 .062-.435.308-.891.588-1.364.837-.232.124-.465.249-.705.357l-.35.147c-.278.24-.557.481-.844.714a113.343 113.343 0 0 1-5.273 4.055l-1.512 1.047c-.535.349-1.054.736-1.62 1.054a.047.047 0 0 1-.024-.054zM80.594 53.965l2.66-4.048 2.504 3.404-1.023 3.009-2.838.062-1.303-2.427z" fill="#263238"/><path d="m81.897 56.392-4.715 31.347 4.784 11.05 4.32-11.39-1.552-31.07-2.837.063z" fill="#263238"/><path d="M84.238 49.63c-2.768.668-7.552-3.535-9.451-6.977-.132-.233.217-2.714.488-5.754.163-1.845.295-3.876.287-5.792l11.847 2.8a29.859 29.859 0 0 0-1.093 7.25c0 .26.028.52.085.774v.132c.233 1.481.481 6.909-2.163 7.568z" fill="#F7A9A0"/><path d="M76.36 31.324c.365 2.497 2.055 10.716 8.809 10.855.407.01.814-.013 1.217-.07a1 1 0 0 1 0-.131 4.007 4.007 0 0 1-.093-.776 30.19 30.19 0 0 1 1.101-7.25l-11.033-2.628z" fill="#263238"/><path d="M72.802 17.903c-.908 4.288 2.372 16.166 5.582 18.608 4.652 3.52 11.74 3.265 14.592-2.21 2.768-5.303-1.775-20.702-5.31-22.85-5.211-3.21-13.508.11-14.864 6.452z" fill="#F7A9A0"/><path d="M83.378 24.943s-.055.055-.047.086c.24.775.388 1.744-.264 2.21v.038c.869-.364.667-1.62.31-2.334z" fill="#263238"/><path d="M82.432 24.3c-1.31.248-.714 2.86.504 2.628 1.217-.233.597-2.838-.504-2.628zM88.2 23.749c0-.04.07 0 .078.054.155.814.48 1.721 1.271 1.822v.047c-.915.07-1.333-1.148-1.349-1.923z" fill="#263238"/><path d="M88.728 22.726c1.28-.396 1.977 2.194.775 2.558-1.202.365-1.845-2.225-.775-2.558z" fill="#263238"/><path d="M81.137 23.346c.333-.17.612-.388.93-.59.318-.2.66-.38.83-.775a.559.559 0 0 0-.24-.643 1.388 1.388 0 0 0-1.412.17c-.45.248-.793.654-.961 1.14a.604.604 0 0 0 .853.698zM89.433 21.183c-.367.02-.734.02-1.1 0a1.721 1.721 0 0 1-1.11-.248.566.566 0 0 1-.124-.682 1.404 1.404 0 0 1 1.303-.567 2.054 2.054 0 0 1 1.403.489.605.605 0 0 1-.372 1.008z" fill="#A6A6A6"/><path d="M84.897 29.789a2.816 2.816 0 0 0 2.125.775c.34-.01.677-.07 1-.178l.178-.062.179-.07a.209.209 0 0 0 .116-.217.38.38 0 0 0 0-.085v-.07c-.124-.628-.403-1.55-.403-1.55.256.061 1.55.317 1.442 0a42.721 42.721 0 0 0-2.978-8.088.078.078 0 0 0-.1-.046.079.079 0 0 0-.047.1c.651 2.583 1.745 5.033 2.435 7.615a4.824 4.824 0 0 0-1.388-.093c-.085.046.566 1.79.605 2.078a3.876 3.876 0 0 1-3.055-.233c-.117 0-.17.07-.109.124z" fill="#263238"/><path d="M87.588 30.277a3.396 3.396 0 0 1-1.14 1.272 1.55 1.55 0 0 1-.884.217c-.69-.054-.775-.651-.775-1.179.013-.284.063-.565.147-.837a4.357 4.357 0 0 0 2.652.527z" fill="#263238"/><path d="M86.448 31.55c-.266.158-.574.234-.884.216-.69-.054-.775-.651-.775-1.178a1.55 1.55 0 0 1 1.659.961z" fill="#FF9CBD"/><g opacity=".2" fill="#000"><path d="M84.626 19.376c.43-.038.857-.103 1.28-.194.426-.109.821-.303 1.247-.403a7.154 7.154 0 0 1 2.474 0c.07 0 .07.054 0 .046a6.055 6.055 0 0 0-2.582.21 7.68 7.68 0 0 1-2.078.503 7.754 7.754 0 0 0-4.544 1.505 7.707 7.707 0 0 1 4.203-1.667zM84.347 18.244a8.09 8.09 0 0 0 1.217-.179c.403-.1.775-.286 1.186-.38a6.774 6.774 0 0 1 2.326 0c.07 0 .07.055 0 .047a5.933 5.933 0 0 0-2.45.202c-.63.25-1.294.409-1.97.473a7.35 7.35 0 0 0-4.302 1.434 7.374 7.374 0 0 1 3.993-1.597z"/></g><path d="M73.98 28.137s-4.156-6.846-3.768-10.808c.17-1.791 2.605-2.993 2.605-2.993a4.048 4.048 0 0 1 1.28-4.07c2.116-1.993 7.241-1.551 7.241-1.551s3.319-4.8 8.018-2.9c4.698 1.9 1.643 7.226 1.643 7.226s1.722 2.45-2.489 4.366c-4.21 1.915-12.483.038-12.483.038a29.113 29.113 0 0 1-.124 8.684 2.668 2.668 0 0 1-1.923 2.008z" fill="#A6A6A6"/><path d="M82.145 8.777a8.157 8.157 0 0 0-3.303-.597 8.831 8.831 0 0 0-2.978.465 4.939 4.939 0 0 0-3.481 3.714 3.457 3.457 0 0 0 .66 2.597h.046c-1.086-1.349-.52-3.442.604-4.567a7.49 7.49 0 0 1 4.955-1.837 14.871 14.871 0 0 1 3.466.364c.07-.023.093-.108.03-.14z" fill="#A6A6A6"/><path d="M76.252 27.51s-3.148-3.598-4.815-2.435c-1.667 1.163 1.008 6.59 3.164 7.133a2.117 2.117 0 0 0 2.706-1.442l-1.055-3.257z" fill="#F7A9A0"/><path d="M72.243 26.61v.054c1.551.435 2.435 1.698 3.102 3.04a1.187 1.187 0 0 0-1.783-.132.047.047 0 0 0 .054.078 1.295 1.295 0 0 1 1.473.294c.297.333.557.697.776 1.086.077.124.31 0 .24-.117-.124-1.892-1.853-4.334-3.862-4.303z" fill="#263238"/><path d="M83.145 29.176a3.66 3.66 0 1 1 .876-.232c-.282.11-.576.189-.876.232zm-.9-6.776a3.51 3.51 0 0 0-.775.201 3.163 3.163 0 1 0 .776-.201zM91.27 27.052c-1.387.186-2.837-1.07-3.31-2.915a4.396 4.396 0 0 1 .124-2.675 2.27 2.27 0 0 1 3.776-.954 4.25 4.25 0 0 1 1.38 2.326c.496 1.954-.28 3.877-1.737 4.21-.077.01-.155.013-.232.008zm-1.263-6.691h-.186a1.968 1.968 0 0 0-1.287 1.256 3.923 3.923 0 0 0-.101 2.365c.434 1.698 1.752 2.83 2.946 2.52 1.194-.31 1.822-1.923 1.388-3.621a3.877 3.877 0 0 0-1.217-2.032 1.985 1.985 0 0 0-1.543-.488z" fill="#455A64"/><path d="m86.045 24.617-.403-.287c.426-.59 1.511-1.512 2.613-.775l-.264.41c-.985-.658-1.907.598-1.946.652zM70.476 29.54l-.473-.108c.046-.225.527-2.178 1.55-2.62 1.024-.442 7.46-1.435 7.754-1.474l.078.481c-1.87.295-6.878 1.117-7.615 1.442-.736.326-1.17 1.745-1.294 2.28z" fill="#455A64"/><path d="m86.378 41.822-3.31 6.792-8.041-9.358-2.644 2.66s7.498 14.56 7.59 13.956l3.28-5.8 3.877 4.458.38-10.498-1.132-2.21z" fill="#EBEBEB"/><path d="M87.588 49.29c0-1.738.062-3.482 0-5.219 0-.054-.1-.093-.116 0-.458 1.644-.45 8.28-.566 9.863-.155-.186-3.583-3.931-3.621-3.877-.69.907-3.102 5.133-3.265 5.52-1.178-2.326-5.753-10.738-7.187-12.948a.062.062 0 0 0-.109.054c1.016 2.427 7.056 13.763 7.157 13.74a67.55 67.55 0 0 0 3.435-6.134c.566.776 3.993 4.994 4.024 4.738.18-1.907.264-3.822.248-5.738z" fill="#263238"/><path d="M117.912 93.531c-2.845 4.063-10.591 4.846-29.898 8.622-2.675.528-11.444-17.337-8.622-18.042 3.56-.892 17.562-3.567 18.609-3.637 8.847-.589 21.842 10.266 19.911 13.057z" fill="#F7A9A0"/><path d="M83.261 83.196s-8.187 1.24-12.281 3.218a29.26 29.26 0 0 0-10.545 9.195c-2.947 4.172-7.196 16.283-3.916 18.128 2.97 1.659 6.684-10.948 6.684-10.948s-5.908 12.228-1.97 13.569c3.94 1.341 7.42-13.522 7.42-13.522s-5.791 12.708-1.511 13.444c3.24.559 7.148-12.747 7.148-12.747s-4.9 10.956-1.597 11.677c3.652.776 8.033-11.266 8.033-11.266 8.7.411 13.01-2.954 15.794-5.714.675-.69-13.259-15.034-13.259-15.034z" fill="#F7A9A0"/><path d="M64.97 98.424c-.775 1.41-1.511 2.838-2.124 4.311a54.654 54.654 0 0 0-1.667 4.489 27.666 27.666 0 0 0-1.295 6.11c.62-3.66 2.753-8.971 3.373-10.444.62-1.473 1.155-2.978 1.776-4.443.015-.039-.04-.054-.062-.023zM70.336 100.556c-.876 1.846-1.814 3.644-2.605 5.528-.791 1.885-1.373 3.722-2.032 5.645-.054.147.047.124.101 0 .737-1.892 1.55-3.59 2.326-5.474.775-1.884 1.442-3.807 2.264-5.66 0-.047-.046-.085-.054-.039zM75.267 101.564a45.062 45.062 0 0 0-3.334 8.754c-.046.147.078.109.124-.047 1.055-2.93 1.861-5.233 3.303-8.66.024-.047-.062-.109-.093-.047z" fill="#263238"/><path d="m81.555 83.196 16.919 18.864s17.112-3.923 19.632-8.311c1.659-2.893-11.227-14.593-20.935-13.228l-15.616 2.675z" fill="#FFCE28"/><path opacity=".1" d="M96.574 94.958a5.008 5.008 0 0 1-.426 1.38 4.844 4.844 0 0 1-.775 1.226c.075-.478.22-.943.426-1.38.201-.442.462-.855.775-1.226zm11.755-1.062c-.206.44-.35.908-.427 1.388a5.05 5.05 0 0 0 .776-1.233c.209-.437.355-.902.434-1.38-.317.37-.58.782-.783 1.225zm-8.382-3.954a4.846 4.846 0 0 0-1.38-.427 5.577 5.577 0 0 0 2.605 1.194 5.062 5.062 0 0 0-1.225-.767zm8.382-5.187c.162.456.389.887.674 1.279a5.607 5.607 0 0 0-1-2.69c.04.483.15.958.326 1.41zm-17.112 4.078c.159.458.386.89.674 1.28a5.614 5.614 0 0 0-1-2.691c.04.483.15.959.325 1.411zm-6.979-4.466a5.185 5.185 0 0 0 1.28-.675 5.05 5.05 0 0 0-1.412.318 5.329 5.329 0 0 0-1.279.675 5.05 5.05 0 0 0 1.411-.318zm14.406-1.55a5.187 5.187 0 0 0 1.28-.675 5.111 5.111 0 0 0-1.411.318 5.482 5.482 0 0 0-1.28.674 5.274 5.274 0 0 0 1.396-.326l.015.008zm5.335 16.56c.456-.162.887-.389 1.279-.674a5 5 0 0 0-1.411.326c-.457.16-.888.388-1.279.675a5.123 5.123 0 0 0 1.395-.334l.016.008zm12.716-9.396a5.81 5.81 0 0 0-1.016.286c-.456.163-.887.39-1.279.675a5.341 5.341 0 0 0 1.411-.326 4.963 4.963 0 0 0 1-.488l-.116-.147z" fill="#000"/><path d="M108.755 83.56a16.856 16.856 0 0 0-11.63-3.101c-.047 0-.047.085 0 .085 4.249-.116 9.978 2.101 11.583 3.063.055.054.094-.016.047-.047zM103.103 98.881c-1.752-2.17-3.613-4.24-5.49-6.311-1.876-2.07-3.737-4.148-5.66-6.203-1.085-1.14-2.163-2.326-3.287-3.396a.039.039 0 0 0-.054-.008.039.039 0 0 0-.008.055c1.752 2.163 3.605 4.249 5.427 6.326 1.822 2.079 3.737 4.157 5.637 6.203 1.07 1.156 2.163 2.327 3.288 3.404.093.078.193.008.147-.07z" fill="#263238"/><path d="M81.524 82.955a23.206 23.206 0 0 1 3.172-.729c1.062-.194 2.14-.38 3.21-.55 2.132-.341 6.613-1.31 10.552-1.303.047 0-.178.217-.225.21-1.876-.101-15.313 2.574-16.414 2.651.039.078.085.148.116.225a.063.063 0 0 1-.004.09.063.063 0 0 1-.089-.005c-.14-.093-.232-.209-.364-.31a.156.156 0 0 1 .046-.279z" fill="#263238"/></svg>