<svg width="802" height="764" viewBox="0 0 802 764" fill="none" xmlns="http://www.w3.org/2000/svg">
<path d="M1 601.5L0.5 1L794 0.5C794 0.5 798.458 14.6546 800 24C802.448 38.8396 802.272 47.5136 801 62.5C800.701 66.0237 800.496 67.9986 800 71.5C798.22 84.0666 792 103 792 103L513.5 679C513.5 679 507.467 689.602 503 696C499.333 701.252 497.233 704.193 493 709C486.488 716.396 482.051 719.986 474.54 726.063L474 726.5C465.83 733.112 461.078 736.704 452 742C440.372 748.783 433.325 751.908 420.5 756C408.898 759.702 402.108 761.188 390 762.5C377.188 763.889 369.852 763.455 357 762.5C350.14 761.99 346.263 761.759 339.5 760.5C329.902 758.713 315.5 753.5 315.5 753.5L1 601.5Z" fill="#FFCE28"/>
</svg>
