<svg width="20" height="20" viewBox="0 0 20 20" fill="none" xmlns="http://www.w3.org/2000/svg">
<path fill-rule="evenodd" clip-rule="evenodd" d="M1.66663 17.7083C1.50087 17.7083 1.34189 17.7742 1.22468 17.8914C1.10747 18.0086 1.04163 18.1676 1.04163 18.3333C1.04163 18.4991 1.10747 18.6581 1.22468 18.7753C1.34189 18.8925 1.50087 18.9583 1.66663 18.9583H18.3333C18.4991 18.9583 18.658 18.8925 18.7752 18.7753C18.8924 18.6581 18.9583 18.4991 18.9583 18.3333C18.9583 18.1676 18.8924 18.0086 18.7752 17.8914C18.658 17.7742 18.4991 17.7083 18.3333 17.7083H14.1666V13.3333C14.1666 11.7617 14.1666 10.9767 13.6783 10.4883C13.19 10 12.405 10 10.8333 10H9.16663C7.59496 10 6.80996 10 6.32163 10.4883C5.83329 10.9767 5.83329 11.7617 5.83329 13.3333V17.7083H1.66663ZM7.70829 12.5C7.70829 12.3342 7.77414 12.1753 7.89135 12.0581C8.00856 11.9408 8.16753 11.875 8.33329 11.875H11.6666C11.8324 11.875 11.9914 11.9408 12.1086 12.0581C12.2258 12.1753 12.2916 12.3342 12.2916 12.5C12.2916 12.6658 12.2258 12.8247 12.1086 12.9419C11.9914 13.0592 11.8324 13.125 11.6666 13.125H8.33329C8.16753 13.125 8.00856 13.0592 7.89135 12.9419C7.77414 12.8247 7.70829 12.6658 7.70829 12.5ZM7.70829 15C7.70829 14.8342 7.77414 14.6753 7.89135 14.5581C8.00856 14.4408 8.16753 14.375 8.33329 14.375H11.6666C11.8324 14.375 11.9914 14.4408 12.1086 14.5581C12.2258 14.6753 12.2916 14.8342 12.2916 15C12.2916 15.1658 12.2258 15.3247 12.1086 15.4419C11.9914 15.5592 11.8324 15.625 11.6666 15.625H8.33329C8.16753 15.625 8.00856 15.5592 7.89135 15.4419C7.77414 15.3247 7.70829 15.1658 7.70829 15Z" fill="#FFCE28"/>
<path d="M6.66667 3.75C7.4525 3.75 7.845 3.75 8.08917 3.99417C8.33333 4.23833 8.33333 4.63083 8.33333 5.41667V6.91C8.46417 6.97417 8.5775 7.05417 8.67833 7.155C9.015 7.49167 9.12 7.97 9.1525 8.75V10C7.59083 10 6.80833 10.0017 6.32167 10.4883C5.83333 10.9767 5.83333 11.7617 5.83333 13.3333V17.7083H2.5V10C2.5 8.42833 2.5 7.64333 2.98833 7.155C3.08868 7.05445 3.20533 6.97161 3.33333 6.91V5.41667C3.33333 4.63083 3.33333 4.23833 3.5775 3.99417C3.82167 3.75 4.21417 3.75 5 3.75H5.20833V2.5C5.20833 2.33424 5.27418 2.17527 5.39139 2.05806C5.5086 1.94085 5.66757 1.875 5.83333 1.875C5.99909 1.875 6.15806 1.94085 6.27527 2.05806C6.39249 2.17527 6.45833 2.33424 6.45833 2.5V3.75H6.66667ZM17.2033 4.3725C16.9067 3.94417 16.3833 3.7475 15.3367 3.35583C13.2908 2.58833 12.2683 2.205 11.5508 2.70167C10.8333 3.2 10.8333 4.29167 10.8333 6.47667V10C12.405 10 13.19 10 13.6783 10.4883C14.1667 10.9767 14.1667 11.7617 14.1667 13.3333V17.7083H17.5V6.47667C17.5 5.36 17.5 4.80083 17.2033 4.3725Z" fill="#2C2E35"/>
</svg>
