<svg width="20" height="21" viewBox="0 0 20 21" fill="none" xmlns="http://www.w3.org/2000/svg">
<path d="M19.4124 0.405446C19.3543 0.260774 19.2427 0.144066 19.1007 0.0796031C18.9588 0.0151399 18.7974 0.00788407 18.6503 0.0593452C18.5031 0.110806 18.3815 0.217022 18.3106 0.355896C18.2398 0.49477 18.2252 0.65561 18.2699 0.804955C19.2001 3.47836 17.3538 5.4749 15.946 6.54426L15.3772 5.72923C15.186 5.45588 14.7585 5.22859 14.426 5.22458L11.234 5.2386C10.844 5.25038 10.4645 5.36731 10.1356 5.57703L0.729594 12.1724C0.510811 12.3264 0.361945 12.5608 0.315593 12.8242C0.26924 13.0877 0.329176 13.3588 0.482279 13.5782L4.75672 19.694C5.07713 20.1496 5.58878 20.0945 6.04536 19.7761L15.4513 13.1797C15.7217 12.9885 16.0341 12.5759 16.1442 12.2605L17.1435 9.11153C17.2536 8.79713 17.1865 8.31752 16.9953 8.04417L16.6489 7.54754C18.5393 6.0987 20.5018 3.53844 19.4124 0.405446ZM15.0358 9.77538C14.8625 9.89667 14.667 9.98263 14.4605 10.0284C14.254 10.0741 14.0405 10.0787 13.8322 10.0418C13.6239 10.005 13.425 9.92751 13.2466 9.81375C13.0683 9.7 12.9141 9.55222 12.793 9.37887C12.5476 9.02808 12.4514 8.59426 12.5255 8.17263C12.5997 7.75101 12.8381 7.37603 13.1885 7.13001C13.4631 6.93758 13.791 6.83578 14.1264 6.83883C14.4617 6.84188 14.7877 6.94963 15.0588 7.14703C14.7865 7.31124 14.5993 7.40736 14.5642 7.42238C14.4401 7.48156 14.3398 7.58115 14.2796 7.70481C14.2195 7.82848 14.2032 7.9689 14.2333 8.10307C14.2635 8.23723 14.3383 8.35718 14.4455 8.44326C14.5527 8.52933 14.686 8.57644 14.8235 8.57685C14.9097 8.57685 14.9978 8.55683 15.0809 8.51778C15.2751 8.42566 15.4834 8.31652 15.7007 8.18736C15.7506 8.4878 15.7148 8.79625 15.5971 9.0772C15.4795 9.35814 15.2849 9.60016 15.0358 9.77538Z" fill="#2C2E35"/>
<path d="M19.1006 0.0796031C19.2426 0.144066 19.3542 0.260774 19.4123 0.405446C20.5017 3.53844 18.5392 6.0987 16.6488 7.54754L16 8L15.0808 8.51778C14.9977 8.55683 14.9096 8.57685 14.8235 8.57685C14.686 8.57644 14.5527 8.52933 14.4454 8.44326C14.3382 8.35718 14.2634 8.23723 14.2333 8.10307C14.2031 7.9689 14.2194 7.82848 14.2796 7.70481C14.3397 7.58115 14.44 7.48156 14.5641 7.42238C14.5992 7.40736 14.7864 7.31124 15.0588 7.14703L15.9459 6.54426C17.3537 5.4749 19.2 3.47836 18.2699 0.804955C18.2251 0.65561 18.2397 0.49477 18.3105 0.355896C18.3814 0.217022 18.503 0.110806 18.6502 0.0593452C18.7974 0.00788407 18.9587 0.0151399 19.1006 0.0796031Z" fill="#FFCE28"/>
</svg>
